<svg id="Orange_Expanded_copy" data-name="Orange Expanded copy" xmlns="http://www.w3.org/2000/svg" viewBox="0 0 300 100"><defs><style>.cls-1{fill:#cfe8f8;}.cls-2{fill:#fff;}.cls-3{fill:#6fbbea;}.cls-4{fill:#0b6aa5;}</style></defs><title>open-badges-illustrations-B</title><path class="cls-1" d="M80.9,66.23H75.71v2.71l-6.21,5-6.1-5V66.23H58.21A16.61,16.61,0,0,0,41.65,82.78H97.46A16.61,16.61,0,0,0,80.9,66.23Z"/><path class="cls-2" d="M56.93,39.21c0,0.05,0,9.32,0,9.38a12.67,12.67,0,0,0,6.58,10.95c0,0.23,0,8.15.07,8.46a6,6,0,0,0,6,5.06c2,0,5.43-.88,5.82-5.06,0-.25,0-8.12,0-8.34a12.67,12.67,0,0,0,6.81-11.13s0-9.29,0-9.32c-8.06,0-15.63-1.48-16.62-10C65.65,33.67,63.46,39.21,56.93,39.21Z"/><path class="cls-3" d="M69.82,17.51A20.07,20.07,0,0,0,49.69,37.64c0,7.46,3.19,12,7.81,14.54a12.64,12.64,0,0,1-.57-3.59c0-.05,0-9.32,0-9.38,6.53,0,8.72-5.54,8.72-10,1,8.55,8.55,10,16.62,10,0,0,0,9.29,0,9.32a12.64,12.64,0,0,1-.54,3.55c4.81-2.5,8.23-7,8.23-14.44A20.13,20.13,0,0,0,69.82,17.51Z"/><path class="cls-4" d="M80.9,64.73H77.21V60.34a14.3,14.3,0,0,0,5.72-7.18c5.52-3.08,8.52-8.38,8.52-15.52a21.63,21.63,0,1,0-43.26,0c0,5.51,1.64,9.92,4.86,13.12a16.18,16.18,0,0,0,3.23,2.45,14.32,14.32,0,0,0,5.62,7.07v4.44H58.21A18.08,18.08,0,0,0,40.15,82.78v1.5H99v-1.5A18.08,18.08,0,0,0,80.9,64.73ZM55.43,39.21c0,0.05,0,9.34,0,9.4s0,0.18,0,.27l-0.28-.25c-2.64-2.61-4-6.31-4-11a18.63,18.63,0,1,1,37.26,0c0,5.4-1.94,9-4.71,11.31,0-.13,0-0.26,0-0.4s0-9.31,0-9.34a1.5,1.5,0,0,0-1.5-1.5c-10,0-14.41-2.52-15.13-8.71a1.5,1.5,0,0,0-3,.17c0,1.43-.35,8.54-7.22,8.54A1.5,1.5,0,0,0,55.43,39.21Zm3,9.37c0-.12,0-5.38,0-8A9.32,9.32,0,0,0,66,34.85c3,4.67,9.08,5.71,14.75,5.85,0,2.6,0,7.71,0,7.83A11.17,11.17,0,0,1,58.43,48.58ZM69.51,72L64.9,68.22V61.77a13.91,13.91,0,0,0,9.31,0v6.41Zm-11.3-4.27H61.9v1.21a1.5,1.5,0,0,0,.55,1.16L68,74.64v6.64H43.23A15.08,15.08,0,0,1,58.21,67.73ZM71,81.28V74.65l5.65-4.55a1.5,1.5,0,0,0,.56-1.17V67.73H80.9a15.08,15.08,0,0,1,15,13.56H71Z"/><path class="cls-4" d="M72.73,52.7a3.33,3.33,0,0,1-6.66,0h6.66Z"/><path class="cls-4" d="M71,50.32h-2.8a1.5,1.5,0,0,1-1.5-1.5v-3.7a1.5,1.5,0,0,1,3,0v2.2H71A1.5,1.5,0,0,1,71,50.32Z"/><path class="cls-2" d="M274.34,19.56H204.85a7.25,7.25,0,0,0-7.24,7.24V76.33a7.25,7.25,0,0,0,7.24,7.24h69.49a7.25,7.25,0,0,0,7.24-7.24V26.8A7.25,7.25,0,0,0,274.34,19.56Z"/><path class="cls-4" d="M275.58,18.42h-72a7.51,7.51,0,0,0-7.5,7.5v51.3a7.51,7.51,0,0,0,7.5,7.5h72a7.51,7.51,0,0,0,7.5-7.5V25.92A7.51,7.51,0,0,0,275.58,18.42Zm4.5,58.8a4.5,4.5,0,0,1-4.5,4.5h-72a4.5,4.5,0,0,1-4.5-4.5V25.92a4.5,4.5,0,0,1,4.5-4.5h72a4.5,4.5,0,0,1,4.5,4.5v51.3Z"/><path class="cls-4" d="M204,47A3.95,3.95,0,1,0,208,50.9,4,4,0,0,0,204,47Zm0,4.9A0.95,0.95,0,1,1,205,50.9,0.95,0.95,0,0,1,204,51.85Z"/><path class="cls-3" d="M210.3,27.75v47.6h63.15V27.75H210.3Zm39.12,23.68-3.3,2.4,1.26,3.88a1.5,1.5,0,0,1-2.31,1.68l-3.3-2.4-3.3,2.4a1.5,1.5,0,0,1-2.31-1.68l1.26-3.88-3.3-2.4a1.5,1.5,0,0,1,.88-2.71h4.08l1.26-3.88a1.5,1.5,0,0,1,2.85,0l1.26,3.88h4.08A1.5,1.5,0,0,1,249.42,51.43Z"/><path class="cls-1" d="M241.84,35.36L227.5,43.63V60.18l14.33,8.28,14.33-8.28V43.63Zm7.58,16.08-3.3,2.4,1.26,3.88a1.5,1.5,0,0,1-2.31,1.68l-3.3-2.4-3.3,2.4a1.5,1.5,0,0,1-2.31-1.68l1.26-3.88-3.3-2.4a1.5,1.5,0,0,1,.88-2.71h4.08l1.26-3.88a1.5,1.5,0,0,1,2.85,0l1.26,3.88h4.08A1.5,1.5,0,0,1,249.42,51.43Z"/><circle class="cls-4" cx="76.03" cy="44.98" r="1.48"/><circle class="cls-4" cx="63.56" cy="44.98" r="1.48"/><polygon class="cls-1" points="153.14 59.95 160 53.13 143.6 53.13 143.6 47.04 160.01 47.04 153.14 40.22 157.33 36.04 171.37 50.08 157.33 64.13 153.14 59.95"/><path class="cls-4" d="M157.33,38.16l11.93,11.93L157.33,62l-2.06-2.06,8.38-8.32H145.1V48.54h18.55l-8.38-8.32,2.06-2.06m0-4.24L151,40.23l5.35,5.31H142.1v9.09h14.27L151,59.94l6.31,6.31L173.5,50.08,157.33,33.91h0Z"/><rect class="cls-1" x="128.81" y="47" width="8.55" height="6.09"/><path class="cls-4" d="M135.86,48.5v3.09h-5.55V48.5h5.55m3-3H127.31v9.09h11.55V45.5h0Z"/><path class="cls-4" d="M208.8,76.86H275V26.25H208.8V76.86Zm3-47.61H272V73.86H211.8V29.25Z"/><path class="cls-4" d="M226,42.77V61l15.83,9.14L257.67,61V42.77l-15.83-9.14Zm28.67,16.55-12.83,7.41L229,59.32V44.5l12.83-7.41,12.83,7.41V59.32Z"/><path class="cls-4" d="M238.92,44.38L238,47.22h-3a3,3,0,0,0-1.76,5.43l2.42,1.76-0.92,2.84a3,3,0,0,0,4.62,3.35l2.42-1.76,2.42,1.76a3,3,0,0,0,4.62-3.35l-0.92-2.84,2.42-1.76a3,3,0,0,0-1.76-5.43h-3l-0.92-2.84A3,3,0,0,0,238.92,44.38Zm9.62,5.84-4.18,3,1.6,4.91-4.18-3-4.18,3,1.6-4.91-4.18-3h5.17l1.6-4.91,1.6,4.91h5.17Z"/></svg>