<svg id="Orange_Expanded" data-name="Orange Expanded" xmlns="http://www.w3.org/2000/svg" viewBox="0 0 300 100"><defs><style>.cls-1{fill:#fbcd99;}.cls-2{fill:#f68101;}.cls-3{fill:#fde6cc;}.cls-4{fill:#fff;}</style></defs><title>open-badges-illustrations-A</title><polygon class="cls-1" points="41.79 67.1 41.79 34.21 70.28 17.77 98.76 34.21 98.76 67.1 70.28 83.55 41.79 67.1"/><path class="cls-2" d="M70.28,19.5l27,15.58V66.24l-27,15.58-27-15.58V35.08l27-15.58m0-3.46-30,17.31V68l30,17.31,30-17.31V33.35L70.28,16h0Z"/><path class="cls-2" d="M232.23,52.44a3.33,3.33,0,0,1-6.66,0h6.66Z"/><path class="cls-2" d="M230.46,50.07h-2.8a1.5,1.5,0,0,1,0-3H229v-2.2a1.5,1.5,0,1,1,3,0v3.7A1.5,1.5,0,0,1,230.46,50.07Z"/><polygon class="cls-3" points="50.74 61.94 50.74 39.38 70.28 28.1 89.81 39.38 89.81 61.94 70.28 73.21 50.74 61.94"/><path class="cls-2" d="M70.28,29.84l18,10.41V61.07l-18,10.41-18-10.41V40.25l18-10.41m0-3.46-21,12.14V62.8l21,12.14,21-12.14V38.52l-21-12.14h0Z"/><circle class="cls-2" cx="235.53" cy="43.7" r="1.48"/><circle class="cls-2" cx="223.03" cy="43.7" r="1.48"/><polygon class="cls-3" points="154.14 60.86 161 54.05 144.6 54.05 144.6 47.95 161.01 47.95 154.14 41.14 158.33 36.95 172.37 51 158.33 65.05 154.14 60.86"/><path class="cls-2" d="M158.33,39.07L170.25,51,158.33,62.93l-2.06-2.06,8.38-8.32H146.1V49.45h18.55l-8.38-8.32,2.06-2.06m0-4.24L152,41.14l5.35,5.31H143.1v9.09h14.27L152,60.86l6.31,6.31L174.5,51,158.33,34.83h0Z"/><path class="cls-4" d="M75.56,60.16a1.5,1.5,0,0,1-.88-0.29l-4.52-3.29-4.52,3.29a1.5,1.5,0,0,1-2.31-1.68L65,52.87l-4.53-3.29a1.5,1.5,0,0,1,.88-2.71H67l1.73-5.32a1.5,1.5,0,0,1,2.85,0l1.73,5.32H78.9a1.5,1.5,0,0,1,.88,2.71l-4.53,3.29L77,58.19A1.5,1.5,0,0,1,75.56,60.16Z"/><path class="cls-2" d="M70.15,42l2.07,6.36H78.9L73.49,52.3l2.07,6.36-5.41-3.93-5.41,3.93,2.07-6.36-5.41-3.93h6.68L70.15,42m0-3a3,3,0,0,0-2.85,2.07l-1.39,4.28h-4.5a3,3,0,0,0-1.76,5.43l3.64,2.65-1.39,4.28a3,3,0,0,0,4.62,3.35l3.64-2.65,3.64,2.65a3,3,0,0,0,4.62-3.35L77,53.45l3.64-2.65a3,3,0,0,0-1.76-5.43H74.4L73,41.09A3,3,0,0,0,70.15,39h0Z"/><rect class="cls-3" x="129.81" y="47.91" width="8.55" height="6.09"/><path class="cls-2" d="M136.86,49.41V52.5h-5.55V49.41h5.55m3-3H128.31V55.5h11.55V46.41h0Z"/><path class="cls-3" d="M240.45,66.1h-5.53l-1.2,7-9.14,0-1.5-6.94h-5.32A16.61,16.61,0,0,0,201.2,82.66H257A16.61,16.61,0,0,0,240.45,66.1Z"/><path class="cls-1" d="M252.12,49.83c-5.88,0-2.67-2-2.67-12.45a20.13,20.13,0,1,0-40.26,0c0,11.21,4,12.45-2.64,12.45a11.06,11.06,0,0,0-11.28,11.28,11.31,11.31,0,0,0,11.28,11.28s2.11-6.26,16.53-6.26V60.07s-6.6-6.36-6.65-11.79c0,0,0-9.29,0-9.32,8.06,0,15.63-1.48,16.62-10,0,4.5,2.19,10,8.72,10,0,0.05,0,9.32,0,9.38-0.07,5.41-6.85,11.73-6.85,11.73V66c14.92,0,17.21,6.42,17.21,6.42A11.31,11.31,0,0,0,263.4,61.11,11.53,11.53,0,0,0,252.12,49.83Z"/><path class="cls-2" d="M264.9,61.11a13,13,0,0,0-12.78-12.78,5.73,5.73,0,0,1-2-.2,12.11,12.11,0,0,1,.22-2.69,54,54,0,0,0,.63-8.06,21.63,21.63,0,0,0-43.26,0,44.63,44.63,0,0,0,.89,8.93,16.33,16.33,0,0,1,.29,1.88,11.93,11.93,0,0,1-2.32.14,12.5,12.5,0,0,0-12.78,12.78,12.79,12.79,0,0,0,8.64,12.07,17.92,17.92,0,0,0-2.72,9.48v1.5h58.81v-1.5a17.92,17.92,0,0,0-2.64-9.36A12.78,12.78,0,0,0,264.9,61.11ZM202.77,81.16a15.08,15.08,0,0,1,15-13.56h3.69v1.2a6.66,6.66,0,0,0,1.89,4.45,7.76,7.76,0,0,0,5.72,2.06c6,0,7.66-4.24,7.69-6.48V67.6h3.69a15.08,15.08,0,0,1,15,13.56H202.77ZM229.1,59.34a11.2,11.2,0,0,1-11.17-11.06c0-.12,0-5.24,0-7.83,5.68-.14,11.72-1.18,14.75-5.85a9.32,9.32,0,0,0,7.58,5.77c0,2.58,0,7.84,0,8A11.21,11.21,0,0,1,229.1,59.34Zm0,3a14,14,0,0,0,4.66-.81v7.26c0,0.62-.37,3.52-4.69,3.52s-4.6-2.93-4.61-3.5V61.53A14,14,0,0,0,229.1,62.34Zm24.85,8.37a18,18,0,0,0-13.5-6.11h-3.69V60.06a14.19,14.19,0,0,0,6.51-11.71c0-.05,0-9.34,0-9.39a1.5,1.5,0,0,0-1.5-1.5c-6.87,0-7.22-7.11-7.22-8.54a1.5,1.5,0,0,0-3-.17c-0.71,6.18-5.1,8.71-15.13,8.71a1.5,1.5,0,0,0-1.5,1.5s0,9.31,0,9.34a14.18,14.18,0,0,0,6.52,11.77V64.6h-3.69a18,18,0,0,0-13.42,6,9.78,9.78,0,0,1-7.56-9.51,9.56,9.56,0,0,1,9.78-9.78c2.18,0,3.79-.09,4.71-1.19s0.65-2.39.27-4.38a41.93,41.93,0,0,1-.84-8.37,18.63,18.63,0,0,1,37.26,0,51.42,51.42,0,0,1-.6,7.65c-0.33,2.35-.54,3.9.47,5.07s2.3,1.22,4.3,1.22a10,10,0,0,1,9.78,9.78A9.79,9.79,0,0,1,253.95,70.71Z"/></svg>