<?xml version="1.0" encoding="UTF-8" standalone="no"?>
<svg width="48px" height="48px" viewBox="0 0 48 48" version="1.1" xmlns="http://www.w3.org/2000/svg" xmlns:xlink="http://www.w3.org/1999/xlink">
    <!-- Generator: Sketch 3.6.1 (26313) - http://www.bohemiancoding.com/sketch -->
    <title>icon-facebook</title>
    <desc>Created with Sketch.</desc>
    <defs></defs>
    <g id="Home" stroke="none" stroke-width="1" fill="none" fill-rule="evenodd">
        <g id="HD:-Home" transform="translate(-304.000000, -1808.000000)">
            <g id="Footer-/-HD" transform="translate(0.000000, 1760.000000)">
                <g id="social" transform="translate(240.000000, 48.000000)">
                    <g id="facebook-hover" transform="translate(64.000000, 0.000000)" fill="#F68101">
                        <path d="M24,48 C37.2548346,48 48,37.2548346 48,24 C48,10.7451654 37.2548346,0 24,0 C10.7451654,0 0,10.7451654 0,24 C0,37.2548346 10.7451654,48 24,48 L24,48 Z M24,45.12 C35.6642545,45.12 45.12,35.6642545 45.12,24 C45.12,12.3357455 35.6642545,2.88 24,2.88 C12.3357455,2.88 2.88,12.3357455 2.88,24 C2.88,35.6642545 12.3357455,45.12 24,45.12 L24,45.12 Z M25.7419389,34.56 L25.7419389,23.9987635 L28.8659951,23.9987635 L29.28,20.3593029 L25.7419389,20.3593029 L25.7472467,18.5377178 C25.7472467,17.5884904 25.8438921,17.0798727 27.3048516,17.0798727 L29.2578844,17.0798727 L29.2578844,13.44 L26.1333858,13.44 C22.3803607,13.44 21.0593931,15.20553 21.0593931,18.1745961 L21.0593931,20.3597151 L18.72,20.3597151 L18.72,23.9991756 L21.0593931,23.9991756 L21.0593931,34.56 L25.7419389,34.56 L25.7419389,34.56 Z" id="facebook"></path>
                    </g>
                    <g id="facebook" transform="translate(64.000000, 0.000000)" fill="#0FB1DC">
                        <path d="M24,48 C37.2548346,48 48,37.2548346 48,24 C48,10.7451654 37.2548346,0 24,0 C10.7451654,0 0,10.7451654 0,24 C0,37.2548346 10.7451654,48 24,48 L24,48 Z M24,45.12 C35.6642545,45.12 45.12,35.6642545 45.12,24 C45.12,12.3357455 35.6642545,2.88 24,2.88 C12.3357455,2.88 2.88,12.3357455 2.88,24 C2.88,35.6642545 12.3357455,45.12 24,45.12 L24,45.12 Z M25.7419389,34.56 L25.7419389,23.9987635 L28.8659951,23.9987635 L29.28,20.3593029 L25.7419389,20.3593029 L25.7472467,18.5377178 C25.7472467,17.5884904 25.8438921,17.0798727 27.3048516,17.0798727 L29.2578844,17.0798727 L29.2578844,13.44 L26.1333858,13.44 C22.3803607,13.44 21.0593931,15.20553 21.0593931,18.1745961 L21.0593931,20.3597151 L18.72,20.3597151 L18.72,23.9991756 L21.0593931,23.9991756 L21.0593931,34.56 L25.7419389,34.56 L25.7419389,34.56 Z"></path>
                    </g>
                </g>
            </g>
        </g>
    </g>
</svg>