<?xml version="1.0" encoding="UTF-8" standalone="no"?>
<svg width="48px" height="48px" viewBox="0 0 48 48" version="1.1" xmlns="http://www.w3.org/2000/svg" xmlns:xlink="http://www.w3.org/1999/xlink">
    <!-- Generator: Sketch 3.6.1 (26313) - http://www.bohemiancoding.com/sketch -->
    <title>icon-twitter</title>
    <desc>Created with Sketch.</desc>
    <defs></defs>
    <g id="Home" stroke="none" stroke-width="1" fill="none" fill-rule="evenodd">
        <g id="HD:-Home" transform="translate(-240.000000, -1808.000000)">
            <g id="Footer-/-HD" transform="translate(0.000000, 1760.000000)">
                <g id="social" transform="translate(240.000000, 48.000000)">
                    <g id="twitter-hover" fill="#F68101">
                        <path d="M24,48 C37.2548346,48 48,37.2548346 48,24 C48,10.7451654 37.2548346,0 24,0 C10.7451654,0 0,10.7451654 0,24 C0,37.2548346 10.7451654,48 24,48 L24,48 Z M24,45.12 C35.6642545,45.12 45.12,35.6642545 45.12,24 C45.12,12.3357455 35.6642545,2.88 24,2.88 C12.3357455,2.88 2.88,12.3357455 2.88,24 C2.88,35.6642545 12.3357455,45.12 24,45.12 L24,45.12 Z M23.6949652,19.7321256 L23.7407462,20.5210571 L22.977728,20.4244532 C20.2003416,20.0541384 17.7739436,18.7982884 15.7137944,16.6891044 L14.7066103,15.6425627 L14.4471841,16.4153934 C13.8978109,18.138162 14.2487993,19.9575346 15.3933267,21.1811833 C16.0037412,21.8574103 15.866398,21.9540141 14.8134328,21.5514981 C14.4471841,21.4226929 14.1267164,21.3260891 14.0961956,21.3743911 C13.9893732,21.4870956 14.3556219,22.9522539 14.6455688,23.531877 C15.0423383,24.3369091 15.8511376,25.1258405 16.7362387,25.5927591 L17.4839966,25.9630739 L16.5988955,25.9791745 C15.7443151,25.9791745 15.7137944,25.9952751 15.8053566,26.3333886 C16.1105639,27.3799304 17.3161327,28.4908746 18.6590448,28.9738938 L19.6051873,29.3120074 L18.7811276,29.8272278 C17.5602985,30.5678574 16.1258242,30.9864741 14.6913499,31.0186754 C14.0046335,31.0347759 13.44,31.0991785 13.44,31.1474805 C13.44,31.3084868 15.3017645,32.2101228 16.3852504,32.5643369 C19.6357081,33.6108786 23.4965804,33.1600606 26.3960497,31.3728895 C28.4561989,30.1009387 30.5163483,27.573138 31.4777512,25.1258405 C31.9966036,23.8216885 32.515456,21.4387936 32.515456,20.295648 C32.515456,19.5550186 32.5612371,19.4584147 33.4158175,18.5728794 C33.9194096,18.0576588 34.3924809,17.4941364 34.4840431,17.33313 C34.6366467,17.0272178 34.6213864,17.0272178 33.8431078,17.3009287 C32.5459767,17.783948 32.3628523,17.7195454 33.0037877,16.9950165 C33.476859,16.4797959 34.0414925,15.5459588 34.0414925,15.2722478 C34.0414925,15.2239459 33.812587,15.3044492 33.5531608,15.4493549 C33.2784742,15.6103614 32.6680596,15.851871 32.2102487,15.9967767 L31.386189,16.2704876 L30.6384311,15.7391664 C30.2264012,15.4493549 29.6465075,15.1273421 29.3413001,15.0307382 C28.5630215,14.8053293 27.3727131,14.8375306 26.6707362,15.0951408 C24.7631907,15.8196697 23.5576218,17.6873441 23.6949652,19.7321256 C23.6949652,19.7321256 23.5576218,17.6873441 23.6949652,19.7321256 L23.6949652,19.7321256 Z" id="twitter"></path>
                    </g>
                    <g id="twitter" fill="#0FB1DC">
                        <path d="M24,48 C37.2548346,48 48,37.2548346 48,24 C48,10.7451654 37.2548346,0 24,0 C10.7451654,0 0,10.7451654 0,24 C0,37.2548346 10.7451654,48 24,48 L24,48 Z M24,45.12 C35.6642545,45.12 45.12,35.6642545 45.12,24 C45.12,12.3357455 35.6642545,2.88 24,2.88 C12.3357455,2.88 2.88,12.3357455 2.88,24 C2.88,35.6642545 12.3357455,45.12 24,45.12 L24,45.12 Z M23.6949652,19.7321256 L23.7407462,20.5210571 L22.977728,20.4244532 C20.2003416,20.0541384 17.7739436,18.7982884 15.7137944,16.6891044 L14.7066103,15.6425627 L14.4471841,16.4153934 C13.8978109,18.138162 14.2487993,19.9575346 15.3933267,21.1811833 C16.0037412,21.8574103 15.866398,21.9540141 14.8134328,21.5514981 C14.4471841,21.4226929 14.1267164,21.3260891 14.0961956,21.3743911 C13.9893732,21.4870956 14.3556219,22.9522539 14.6455688,23.531877 C15.0423383,24.3369091 15.8511376,25.1258405 16.7362387,25.5927591 L17.4839966,25.9630739 L16.5988955,25.9791745 C15.7443151,25.9791745 15.7137944,25.9952751 15.8053566,26.3333886 C16.1105639,27.3799304 17.3161327,28.4908746 18.6590448,28.9738938 L19.6051873,29.3120074 L18.7811276,29.8272278 C17.5602985,30.5678574 16.1258242,30.9864741 14.6913499,31.0186754 C14.0046335,31.0347759 13.44,31.0991785 13.44,31.1474805 C13.44,31.3084868 15.3017645,32.2101228 16.3852504,32.5643369 C19.6357081,33.6108786 23.4965804,33.1600606 26.3960497,31.3728895 C28.4561989,30.1009387 30.5163483,27.573138 31.4777512,25.1258405 C31.9966036,23.8216885 32.515456,21.4387936 32.515456,20.295648 C32.515456,19.5550186 32.5612371,19.4584147 33.4158175,18.5728794 C33.9194096,18.0576588 34.3924809,17.4941364 34.4840431,17.33313 C34.6366467,17.0272178 34.6213864,17.0272178 33.8431078,17.3009287 C32.5459767,17.783948 32.3628523,17.7195454 33.0037877,16.9950165 C33.476859,16.4797959 34.0414925,15.5459588 34.0414925,15.2722478 C34.0414925,15.2239459 33.812587,15.3044492 33.5531608,15.4493549 C33.2784742,15.6103614 32.6680596,15.851871 32.2102487,15.9967767 L31.386189,16.2704876 L30.6384311,15.7391664 C30.2264012,15.4493549 29.6465075,15.1273421 29.3413001,15.0307382 C28.5630215,14.8053293 27.3727131,14.8375306 26.6707362,15.0951408 C24.7631907,15.8196697 23.5576218,17.6873441 23.6949652,19.7321256 C23.6949652,19.7321256 23.5576218,17.6873441 23.6949652,19.7321256 L23.6949652,19.7321256 Z"></path>
                    </g>
                </g>
            </g>
        </g>
    </g>
</svg>