<?xml version="1.0" encoding="UTF-8" standalone="no"?>
<svg width="64px" height="64px" viewBox="0 0 64 64" version="1.1" xmlns="http://www.w3.org/2000/svg" xmlns:xlink="http://www.w3.org/1999/xlink">
    <!-- Generator: Sketch 3.6.1 (26313) - http://www.bohemiancoding.com/sketch -->
    <title>icon-slack</title>
    <desc>Created with Sketch.</desc>
    <defs></defs>
    <g id="Home" stroke="none" stroke-width="1" fill="none" fill-rule="evenodd">
        <g id="HD:-Home" transform="translate(-1056.000000, -1488.000000)" fill="#F68101">
            <g id="recognition" transform="translate(229.000000, 1121.000000)">
                <g id="get-involved" transform="translate(512.000000, 288.000000)">
                    <g id="slack-channel" transform="translate(235.000000, 63.000000)">
                        <g id="icon-slack" transform="translate(80.000000, 16.000000)">
                            <path d="M63.7060189,33.6995823 C62.7199331,30.769626 59.5452242,29.1939327 56.6153989,30.1801495 L50.6733344,32.1800982 L46.646053,20.2148654 L52.4332473,18.2670642 C55.3632036,17.2809784 56.9388969,14.1062695 55.9526801,11.1764442 C54.9665943,8.24648797 51.7918854,6.67079465 48.8620601,7.65701148 L43.0749969,9.60481266 L41.1257544,3.81342561 C40.1395376,0.883469341 36.9649597,-0.692223983 34.0351345,0.293992851 L34.0351345,0.293992851 C31.1051782,1.28007866 29.5294849,4.45478756 30.5157017,7.38461281 L32.4649441,13.1759999 L20.2474903,17.2881847 L18.3218322,11.5668954 C17.3356153,8.63693917 14.1610375,7.06124584 11.2312122,8.04746268 C8.30125596,9.03367951 6.72556263,12.2082574 7.71177947,15.1380826 L9.63743761,20.8593719 L3.81342561,22.8196203 C0.883469341,23.8058372 -0.692223983,26.9804151 0.293992851,29.9102403 L0.293992851,29.9102403 C1.28007866,32.8401966 4.45478756,34.4158899 7.38461281,33.4296731 L13.2086248,31.4694246 L17.2359062,43.4346574 L11.5667644,45.3427584 C8.63680814,46.3289752 7.06111482,49.5035531 8.04733165,52.4333783 C9.03341746,55.3633346 12.2081264,56.9390279 15.1379516,55.9528111 L20.8070934,54.0447102 L22.8743883,60.1867171 C23.8606052,63.1166734 27.035183,64.6923667 29.9650083,63.7061499 C32.8949646,62.7199331 34.4706579,59.5453552 33.484441,56.6155299 L31.4171461,50.473523 L43.6345999,46.3613381 L45.6783106,52.4332473 C46.6645274,55.3632036 49.8391053,56.9388969 52.7689305,55.9526801 C55.6988868,54.9664632 57.2745801,51.7918854 56.2883633,48.8620601 L54.2446526,42.7901509 L60.1867171,40.7902022 C63.1164114,39.8041164 64.6922357,36.6295385 63.7060189,33.6995823 L63.7060189,33.6995823 Z M27.8456968,39.8634702 L23.8184155,27.8982374 L36.0358693,23.7860526 L40.0631507,35.7512854 L27.8456968,39.8634702 L27.8456968,39.8634702 Z" id="Shape"></path>
                        </g>
                    </g>
                </g>
            </g>
        </g>
    </g>
</svg>