<?xml version="1.0" encoding="UTF-8" standalone="no"?>
<svg width="64px" height="64px" viewBox="0 0 64 64" version="1.1" xmlns="http://www.w3.org/2000/svg" xmlns:xlink="http://www.w3.org/1999/xlink">
    <!-- Generator: Sketch 3.6.1 (26313) - http://www.bohemiancoding.com/sketch -->
    <title>icon-community-calls-hover</title>
    <desc>Created with Sketch.</desc>
    <defs></defs>
    <g id="Home" stroke="none" stroke-width="1" fill="none" fill-rule="evenodd">
        <g id="HD:-Home" transform="translate(-832.000000, -1488.000000)" fill="#FFFFFF">
            <g id="recognition" transform="translate(229.000000, 1121.000000)">
                <g id="get-involved" transform="translate(512.000000, 288.000000)">
                    <g id="weekly-calls" transform="translate(11.000000, 63.000000)">
                        <g id="icon-community-calls" transform="translate(80.000000, 16.000000)">
                            <path d="M32.1385927,0.138666667 C20.7388637,0.138666667 9.31169167,2.17884525 5.16544182,6.24526075 C1.72537376,9.6188491 0.578635488,15.5786889 0.192084604,19.3521827 C0.192084604,19.3521827 0.138812785,19.7250855 0.138812785,19.8854879 C0.138812785,21.3652118 1.33852937,22.552014 2.80533881,22.552014 C2.97865567,22.552014 9.39196628,22.0319167 13.2585024,21.7119922 C13.3515446,21.6984908 13.4453207,21.6852829 13.5383629,21.6587204 C14.9784631,21.61895 16.1387027,20.4453557 16.1387027,18.9921944 L16.1516171,13.7386832 C16.1516171,12.1120583 17.4721125,10.805211 19.0988841,10.805211 L45.1781544,10.805211 C46.8052196,10.805211 48.1258617,12.1119115 48.1258617,13.7386832 L48.1389229,18.9921944 C48.1389229,20.4453557 49.2990158,21.61895 50.7389692,21.6587204 C50.8314244,21.6854297 50.9252004,21.6984908 51.0192699,21.7119922 C54.8860996,22.0317699 61.2992634,22.552014 61.4719932,22.552014 C62.9382157,22.552014 64.1388128,21.3652118 64.1388128,19.8854879 C64.1388128,19.7250855 64.085541,19.3521827 64.085541,19.3521827 C63.6986966,15.5786889 62.5532791,9.61899585 59.1130643,6.24526075 C54.9654936,2.17884525 43.5383216,0.138666667 32.1385927,0.138666667 L32.1385927,0.138666667 Z M32.1385927,34.8054128 C29.1919126,34.8054128 26.8052471,37.1919316 26.8052471,40.1386116 C26.8052471,43.0852917 29.1919126,45.4716637 32.1385927,45.4716637 C35.0852727,45.4716637 37.4717915,43.0852917 37.4717915,40.1386116 C37.4717915,37.1919316 35.0852727,34.8054128 32.1385927,34.8054128 L32.1385927,34.8054128 Z M28.1386569,22.8051652 L28.1386569,19.4719343 C28.1386569,17.6320753 26.6451381,16.1387034 24.8054259,16.1387034 C22.9657138,16.1387034 21.472195,17.6322221 21.472195,19.4719343 L21.472195,22.8051652 L3.48481132,42.0186813 C2.24532432,43.2321927 1.47178229,44.9250038 1.47178229,46.7921591 L1.47178229,52.1388593 C1.47178229,55.0855393 3.85859458,57.4719113 6.80512785,57.4719113 L8.13853762,57.4719113 L8.13853762,60.8055825 C8.13853762,62.6452947 9.63220311,64.1385199 11.4719153,64.1385199 C13.3116275,64.1385199 14.8051462,62.6452947 14.8051462,60.8055825 L14.8051462,57.4719113 L49.4720391,57.4719113 L49.4720391,60.8055825 C49.4720391,62.6452947 50.9651176,64.1385199 52.8055635,64.1385199 C54.6452757,64.1385199 56.1385009,62.6452947 56.1385009,60.8055825 L56.1385009,57.4719113 L57.4719107,57.4719113 C60.4185907,57.4719113 62.8051095,55.0855393 62.8051095,52.1388593 L62.8051095,46.7921591 C62.8051095,44.9248571 62.0317142,43.232046 60.7920805,42.0186813 L42.8054305,22.8051652 L42.8054305,19.4719343 C42.8054305,17.6320753 41.3116183,16.1387034 39.4719061,16.1387034 C37.6321939,16.1387034 36.138822,17.6322221 36.138822,19.4719343 L36.138822,22.8051652 L28.1386569,22.8051652 L28.1386569,22.8051652 Z M32.1385927,29.4720673 C38.0319527,29.4720673 42.8054305,34.2453983 42.8054305,40.1386116 C42.8054305,46.0319717 38.0320995,50.8055963 32.1385927,50.8055963 C26.2452326,50.8055963 21.4720483,46.0321184 21.4720483,40.1386116 C21.4720483,34.2452516 26.2452326,29.4720673 32.1385927,29.4720673 L32.1385927,29.4720673 Z" id="Shape"></path>
                        </g>
                    </g>
                </g>
            </g>
        </g>
    </g>
</svg>