<svg id="Orange_Expanded" data-name="Orange Expanded" xmlns="http://www.w3.org/2000/svg" viewBox="0 0 300 100"><defs><style>.cls-1{fill:#fde6cc;}.cls-2{fill:#fbcd99;}.cls-3{fill:#f68101;}.cls-4{fill:#fff;}</style></defs><title>open-badges-illustrations-A</title><path class="cls-1" d="M256.78,66.94l-2.72,1.15-4,3.48-4.47-4.44-4.47,4.75-5.58-4.93h-1.41A16.61,16.61,0,0,0,217.53,83.5h55.81A16.61,16.61,0,0,0,256.78,66.94Z"/><path class="cls-2" d="M71.91,71.23h-4.3v4.23a2,2,0,0,1-2,2H59.47a2,2,0,0,1-2-2V71.23H51.16v4.23a2,2,0,0,1-2,2H43a2,2,0,0,1-2-2V71.23H34.71v4.23a2,2,0,0,1-2,2H26.58a2,2,0,0,1-2-2V71.23H19.44a2,2,0,0,0-2,2v7.84a2,2,0,0,0,2,2H71.91a2,2,0,0,0,2-2V73.23A2,2,0,0,0,71.91,71.23Z"/><path class="cls-2" d="M251.63,24.2a37.49,37.49,0,0,0-6.13-.5c-12.58,0-19.38,6-19.38,6s0,9.25,0,9.3A19.41,19.41,0,0,0,235,55.14a12.6,12.6,0,0,1-2.1-6.86s0-4.62,0-7.32c0-7.79,25.34-7.62,25.34,0,0,2.8,0,7.32,0,7.38a12.59,12.59,0,0,1-2.1,6.81A19.41,19.41,0,0,0,265,39.09c0-.08,0-9.39,0-9.39S260.31,25.64,251.63,24.2Z"/><path class="cls-3" d="M248.68,52.44a3.33,3.33,0,0,1-6.66,0h6.66Z"/><path class="cls-3" d="M237.15,43a1.5,1.5,0,0,1-.35-3L241,39a1.5,1.5,0,1,1,.7,2.92l-4.17,1A1.5,1.5,0,0,1,237.15,43Z"/><path class="cls-3" d="M253.83,43a1.5,1.5,0,0,1-.35,0l-4.17-1A1.5,1.5,0,1,1,250,39l4.17,1A1.5,1.5,0,0,1,253.83,43Z"/><path class="cls-3" d="M246.71,50.07h-2.8a1.5,1.5,0,0,1-1.5-1.5v-3.7a1.5,1.5,0,0,1,3,0v2.2h1.3A1.5,1.5,0,0,1,246.71,50.07Z"/><polygon class="cls-2" points="121.91 67.1 121.91 34.21 150.4 17.77 178.88 34.21 178.88 67.1 150.4 83.55 121.91 67.1"/><path class="cls-3" d="M150.4,19.5l27,15.58V66.24l-27,15.58-27-15.58V35.08l27-15.58m0-3.46-30,17.31V68l30,17.31,30-17.31V33.35L150.4,16h0Z"/><polygon class="cls-1" points="130.87 61.94 130.87 39.38 150.4 28.1 169.93 39.38 169.93 61.94 150.4 73.21 130.87 61.94"/><path class="cls-3" d="M150.4,29.84l18,10.41V61.07l-18,10.41-18-10.41V40.25l18-10.41m0-3.46-21,12.14V62.8l21,12.14,21-12.14V38.52l-21-12.14h0Z"/><path class="cls-4" d="M155.68,60.16a1.5,1.5,0,0,1-.88-0.29l-4.52-3.29-4.52,3.29a1.5,1.5,0,0,1-2.31-1.68l1.73-5.32-4.52-3.29a1.5,1.5,0,0,1,.88-2.71h5.59l1.73-5.32a1.5,1.5,0,0,1,2.85,0l1.73,5.32H159a1.5,1.5,0,0,1,.88,2.71l-4.52,3.29,1.73,5.32A1.5,1.5,0,0,1,155.68,60.16Z"/><path class="cls-3" d="M150.28,42l2.07,6.36H159l-5.41,3.93,2.07,6.36-5.41-3.93-5.41,3.93,2.07-6.36-5.41-3.93h6.68L150.28,42m0-3a3,3,0,0,0-2.85,2.07L146,45.37h-4.5a3,3,0,0,0-1.76,5.43l3.64,2.65L142,57.73a3,3,0,0,0,4.62,3.35l3.64-2.65,3.64,2.65a3,3,0,0,0,4.62-3.35l-1.39-4.28,3.64-2.65A3,3,0,0,0,159,45.37h-4.5l-1.39-4.28A3,3,0,0,0,150.28,39h0Z"/><path class="cls-4" d="M20.41,41.75V49.4a1,1,0,0,0,1,1H70.58a1,1,0,0,0,1-1v-7L45.91,28.24S20.41,41.48,20.41,41.75Z"/><path class="cls-2" d="M73.91,43.72V34.13L45.86,17.49,17.42,34.13v9.59L45.91,27.93Z"/><path class="cls-3" d="M70.58,51.89a2.49,2.49,0,0,0,2.49-2.49V45L73.17,45a1.5,1.5,0,0,0,2.24-1.31V34.13a1.5,1.5,0,0,0-.74-1.29L46.62,16.2a1.5,1.5,0,0,0-1.52,0L16.67,32.83a1.5,1.5,0,0,0-.74,1.29v9.59A1.5,1.5,0,0,0,18.15,45l0.76-.42V49.4a2.49,2.49,0,0,0,2.49,2.49h1.67V69.73H19.44a3.5,3.5,0,0,0-3.5,3.5v7.84a3.5,3.5,0,0,0,3.5,3.5H71.91a3.5,3.5,0,0,0,3.5-3.5V73.23a3.5,3.5,0,0,0-3.5-3.5h-2.8V51.89h1.47ZM18.92,41.17V35L45.85,19.23,72.41,35v6.17L46.64,26.63a1.5,1.5,0,0,0-1.46,0Zm3,7.71V42.95l24-13.3L69.78,43.11l0.28,0.17v5.6H21.92Zm44.19,3V75.52a0.51,0.51,0,0,1-.5.5H59.47a0.51,0.51,0,0,1-.5-0.5V51.89h7.14ZM56,69.73H52.66V51.89H56V69.73ZM49.66,51.89V75.52a0.51,0.51,0,0,1-.5.5H43a0.51,0.51,0,0,1-.5-0.5V51.89h7.14ZM39.52,69.73H36.21V51.89h3.31V69.73ZM33.21,51.89V75.52a0.51,0.51,0,0,1-.5.5H26.58a0.51,0.51,0,0,1-.5-0.5V51.89h7.14ZM71.91,72.73a0.51,0.51,0,0,1,.5.5v7.84a0.51,0.51,0,0,1-.5.5H19.44a0.51,0.51,0,0,1-.5-0.5V73.23a0.51,0.51,0,0,1,.5-0.5h3.64v2.79a3.5,3.5,0,0,0,3.5,3.5h6.14a3.5,3.5,0,0,0,3.5-3.5V72.73h3.31v2.79A3.5,3.5,0,0,0,43,79h6.14a3.5,3.5,0,0,0,3.5-3.5V72.73H56v2.79a3.5,3.5,0,0,0,3.5,3.5h6.14a3.5,3.5,0,0,0,3.5-3.5V72.73h2.8Z"/><circle class="cls-2" cx="45.91" cy="41.06" r="4.27"/><path class="cls-3" d="M45.91,46.84a5.77,5.77,0,1,1,5.77-5.77A5.78,5.78,0,0,1,45.91,46.84Zm0-8.55a2.77,2.77,0,1,0,2.77,2.77A2.78,2.78,0,0,0,45.91,38.29Z"/><circle class="cls-3" cx="251.75" cy="45.69" r="1.48"/><circle class="cls-3" cx="239.25" cy="45.69" r="1.48"/><polygon class="cls-1" points="94.72 59.86 101.59 53.05 85.18 53.05 85.18 46.95 101.59 46.95 94.72 40.14 98.91 35.95 112.96 50 98.91 64.05 94.72 59.86"/><path class="cls-3" d="M98.91,38.07L110.84,50,98.91,61.93l-2.06-2.06,8.38-8.32H86.68V48.45h18.55l-8.38-8.32,2.06-2.06m0-4.24L92.6,40.14l5.35,5.31H83.68v9.09H97.95L92.6,59.86l6.31,6.31L115.08,50,98.91,33.83h0Z"/><polygon class="cls-1" points="199.1 59.86 205.96 53.05 189.56 53.05 189.56 46.95 205.97 46.95 199.1 40.14 203.28 35.95 217.33 50 203.28 64.05 199.1 59.86"/><path class="cls-3" d="M203.28,38.07L215.21,50,203.28,61.93l-2.06-2.06,8.38-8.32H191.06V48.45h18.55l-8.38-8.32,2.06-2.06m0-4.24L197,40.14l5.35,5.31H188.06v9.09h14.27L197,59.86l6.31,6.31L219.45,50,203.28,33.83h0Z"/><polygon class="cls-2" points="250.02 71.57 245.56 67.13 240.09 71.88 237.38 66.72 240.19 63.59 245.41 66.53 250.8 63.58 254.89 67.38 250.02 71.57"/><path class="cls-3" d="M256.78,65.44h-1.35l-2.34-2.15V60.14a14.37,14.37,0,0,0,4.15-4,20.93,20.93,0,0,0,9.26-17.05c0-.08,0-9.41,0-9.41a1.5,1.5,0,0,0-.52-1.13c-0.2-.18-5.1-4.36-14.1-5.85a39.13,39.13,0,0,0-6.38-.52c-13,0-20.08,6.12-20.37,6.38a1.5,1.5,0,0,0-.51,1.12c0,9.26,0,9.31,0,9.32a20.92,20.92,0,0,0,9.26,17.15,14.34,14.34,0,0,0,3.9,3.82v3.4l-2.23,2.05h-1.46A18.08,18.08,0,0,0,216,83.5V85h58.8V83.5A18.08,18.08,0,0,0,256.78,65.44ZM231.39,41c0,7.31,0,7.33,0,7.34a14.11,14.11,0,0,0,.11,1.6A17.74,17.74,0,0,1,227.62,39c0-.17,0-6.4,0-8.56,1.75-1.28,7.95-5.23,17.88-5.23a36.14,36.14,0,0,1,5.89.48,29.08,29.08,0,0,1,12.1,4.76c0,2.18,0,8.47,0,8.63a17.74,17.74,0,0,1-3.87,10.8,14.06,14.06,0,0,0,.11-1.52c0-.06,0-4.6,0-7.4,0-1.39-.64-4-4.94-5.72a25.81,25.81,0,0,0-9.33-1.56C238.45,33.68,231.39,35.93,231.39,41Zm3,7.31c0-.16,0-4.65,0-7.31,0-2.4,4.86-4.28,11.07-4.28A23.12,23.12,0,0,1,253.67,38c1.14,0.46,3.06,1.45,3.06,2.93,0,2.76,0,7.2,0,7.36A11.17,11.17,0,0,1,234.39,48.26Zm3.81,18.82,2.12-2,2.84,2.56-2.05,2.09Zm2.59-5.57v0a14,14,0,0,0,9.31.08v0l-4.6,4.14Zm9.88,3.62,2.12,2-2.91,2.7-2.05-2.09ZM219.11,82a15.08,15.08,0,0,1,15-13.56h1.16l6,5.53,4.28-4.37L249.77,74l6-5.53h1a15.08,15.08,0,0,1,15,13.56H219.11Z"/></svg>