<svg id="Orange_Expanded_copy" data-name="Orange Expanded copy" xmlns="http://www.w3.org/2000/svg" viewBox="0 0 300 100"><defs><style>.cls-1{fill:#fff;}.cls-2{fill:#0b6aa5;}.cls-3{fill:#cfe8f8;}.cls-4{fill:#f68101;}.cls-5{fill:#6fbbea;}</style></defs><title>open-badges-illustrations-B</title><path class="cls-1" d="M102.5,54.38s5.75-2.62,7.44,2.44a4.62,4.62,0,0,1-3.19,4.5s2,4.38-.44,5.56-2.5,1.81-3.5,1.19c0,0,1.44,3.5-.94,4.56a6.32,6.32,0,0,1-4.56.19,3.32,3.32,0,0,1-4.25,3.5L90.5,74S76.94,63.31,82.56,62.81c0,0-8.62-14.25-3.81-14.25,0,0,8.5-4.66,11.11-2.54Z"/><path class="cls-1" d="M48.16,30a5.71,5.71,0,0,0,2.67,3.56c2.08,1,6.58,3.67,6.58,3.67s3.42,1,3.42,6.83-0.28,11.8-6.42,15.17V71.08H42.13V59.67s-7.07-1.87-6.52-16.44c0,0,.26-4.11,5.64-7.56l4.18-2.91S47.32,33,48.16,30Z"/><path class="cls-2" d="M51.4,52.72a3.33,3.33,0,0,1-6.66,0H51.4Z"/><path class="cls-2" d="M49.64,50.34h-2.8a1.5,1.5,0,0,1,0-3h1.3v-2.2a1.5,1.5,0,0,1,3,0v3.7A1.5,1.5,0,0,1,49.64,50.34Z"/><line class="cls-1" x1="243.65" y1="76" x2="238.18" y2="61.86"/><path class="cls-3" d="M247.33,55.83c-2.09,3.11-34.56,3.38-36.66.27l-7.79,20.35L214.45,76l8.68,8.27,5.92-15.49L235,84.27,243.65,76l11.56,0.45Z"/><line class="cls-1" x1="214.45" y1="76" x2="219.92" y2="61.86"/><path class="cls-1" d="M228.74,66.74a10.27,10.27,0,0,1-9-5.26A10.34,10.34,0,0,1,207,48.74a10.34,10.34,0,0,1,0-18A10.34,10.34,0,0,1,219.74,18a10.34,10.34,0,0,1,18,0,10.34,10.34,0,0,1,12.73,12.73,10.34,10.34,0,0,1,0,18,10.33,10.33,0,0,1-10,13.11h0a10.34,10.34,0,0,1-2.78-.38A10.27,10.27,0,0,1,228.74,66.74Z"/><path class="cls-4" d="M228.74,14.24A8.84,8.84,0,0,1,237,19.87a8.84,8.84,0,0,1,11.64,11.64,8.84,8.84,0,0,1,0,16.46A8.84,8.84,0,0,1,237,59.61a8.84,8.84,0,0,1-16.46,0A8.84,8.84,0,0,1,208.87,48a8.84,8.84,0,0,1,0-16.46,8.84,8.84,0,0,1,11.64-11.64,8.84,8.84,0,0,1,8.23-5.62m0-3A11.76,11.76,0,0,0,219,16.31a11.92,11.92,0,0,0-2.07-.18A11.84,11.84,0,0,0,205.31,30a11.85,11.85,0,0,0,0,19.42A11.84,11.84,0,0,0,217,63.35a11.92,11.92,0,0,0,2.07-.18,11.85,11.85,0,0,0,19.42,0,11.92,11.92,0,0,0,2.07.18,11.84,11.84,0,0,0,11.65-13.91,11.85,11.85,0,0,0,0-19.42,11.84,11.84,0,0,0-11.65-13.91,11.91,11.91,0,0,0-2.07.18,11.76,11.76,0,0,0-9.71-5.06h0Z"/><path class="cls-5" d="M255.74,39.74a10.27,10.27,0,0,0-5.26-9A10.34,10.34,0,0,0,237.75,18a10.34,10.34,0,0,0-18,0A10.34,10.34,0,0,0,207,30.74a10.34,10.34,0,0,0,0,18,10.34,10.34,0,0,0,12.73,12.73,10.34,10.34,0,0,0,18,0,10.34,10.34,0,0,0,2.78.38h0a10.33,10.33,0,0,0,10-13.11A10.27,10.27,0,0,0,255.74,39.74ZM228.52,55.51A15.51,15.51,0,1,1,244,40,15.51,15.51,0,0,1,228.52,55.51Z"/><polyline class="cls-1" points="221.47 38.82 226.94 44.29 237.27 33.96"/><path class="cls-2" d="M249.95,58.67a11.73,11.73,0,0,0,2.23-9.22,11.85,11.85,0,0,0,0-19.42,11.84,11.84,0,0,0-11.65-13.91,11.92,11.92,0,0,0-2.07.18,11.85,11.85,0,0,0-19.42,0,11.92,11.92,0,0,0-2.07-.18A11.84,11.84,0,0,0,205.31,30a11.85,11.85,0,0,0,0,19.42A11.73,11.73,0,0,0,208,59.17L200.67,78l13.21-.51,9.84,9.38,5.33-13.8,5.33,13.8,9.84-9.38L257.43,78ZM213.41,74.54l-8.3.32,5.23-13.53a11.74,11.74,0,0,0,6.62,2c0.26,0,.53,0,0.79,0Zm9.13,7.09-6.33-6,4.18-10.83a11.72,11.72,0,0,0,7.34,3.4Zm6.2-16.4a8.84,8.84,0,0,1-8.23-5.62A8.84,8.84,0,0,1,208.87,48a8.84,8.84,0,0,1,0-16.46,8.84,8.84,0,0,1,11.64-11.64,8.84,8.84,0,0,1,16.46,0,8.84,8.84,0,0,1,11.64,11.64,8.84,8.84,0,0,1,0,16.46A8.84,8.84,0,0,1,237,59.61,8.84,8.84,0,0,1,228.74,65.24Zm6.82,16.4-5.22-13.51a11.73,11.73,0,0,0,7.19-3.79l4.35,11.27Zm4.81-18.29h0.16A11.73,11.73,0,0,0,247.62,61L253,74.86l-8.3-.32Z"/><path class="cls-2" d="M245.53,40a17,17,0,1,0-17,17A17,17,0,0,0,245.53,40Zm-17,14a14,14,0,1,1,14-14A14,14,0,0,1,228.52,54Z"/><polygon class="cls-2" points="226.94 42.17 222.53 37.76 220.41 39.88 226.94 46.41 238.33 35.02 236.21 32.9 226.94 42.17"/><circle class="cls-2" cx="54.68" cy="44.95" r="1.48"/><circle class="cls-2" cx="42.18" cy="44.95" r="1.48"/><polygon class="cls-3" points="152.93 59.82 159.8 53 143.39 53 143.39 46.91 159.8 46.91 152.93 40.1 157.12 35.91 171.16 49.96 157.12 64.01 152.93 59.82"/><path class="cls-2" d="M157.12,38L169,50,157.12,61.89l-2.06-2.06,8.38-8.32H144.89V48.41h18.55l-8.38-8.32L157.12,38m0-4.24L155,35.91,152.93,38l-2.13,2.13,2.14,2.12,3.21,3.19H141.89V54.5h14.27l-3.21,3.19-2.14,2.12,2.13,2.13L155,64l2.12,2.12L159.24,64l11.93-11.93L173.29,50l-2.12-2.12L159.24,35.91l-2.12-2.12h0Z"/><rect class="cls-3" x="128.56" y="46.91" width="8.55" height="6.09"/><path class="cls-2" d="M135.61,48.41V51.5h-5.55V48.41h5.55m3-3H127.06V54.5H138.6V45.41h0Z"/><path class="cls-5" d="M67.71,40.25a19.44,19.44,0,0,0-38.87-.08c0,0.06,0,19,0,28.35a16.4,16.4,0,0,1,8.09-2.14l5.31,0.08L42,61.38l5.83,0.13,6.29-.12,0.13,5.13,5.32-.13a12.58,12.58,0,0,1,8.09,2.57C67.71,59.82,67.71,40.29,67.71,40.25Zm-6.77,8.36a12.67,12.67,0,0,1-25.33-.05s0-2.62,0-5.32c0-8.29,12.55-8.7,12.55-13.2,0,4.5,12.78,5.41,12.78,13.2C60.95,46,60.95,48.55,60.94,48.61Z"/><path class="cls-3" d="M102.54,47.35L88.21,39.08,73.88,47.35V63.9l11,6.34a15.91,15.91,0,0,1-7.41,1.84c-10,0-9-5.71-17.83-5.71H54.43v4.71H42.13V66.38H36.94A16.61,16.61,0,0,0,20.38,82.94h0l46.27,0c12,0,21-2.5,27.2-6.6A3.12,3.12,0,0,1,92,75.49L90.5,74a3.16,3.16,0,0,1,0-4.46c0.6-.6,2.52-2.37,2.52-3.21s2.5-2.89,3.35-2.89c2.25,0,2.43-3,3-3.61,0.22-.22,3.09-1.6,3.09-1.6S102.54,47.35,102.54,47.35Zm-6.75,7.8-3.3,2.4,1.26,3.88a1.5,1.5,0,0,1-2.31,1.68l-3.3-2.4-3.3,2.4a1.5,1.5,0,0,1-2.31-1.68l1.26-3.88-3.3-2.4a1.5,1.5,0,0,1,.88-2.71h4.08l1.26-3.88a1.5,1.5,0,0,1,2.85,0l1.26,3.88h4.08A1.5,1.5,0,0,1,95.79,55.15Z"/><path class="cls-2" d="M111.28,56.1a5.17,5.17,0,0,0-5-3.83h0a5.17,5.17,0,0,0-1.34.18l-0.91.24V46.49L88.21,37.34,72.38,46.49V64.77L81.45,70a14.3,14.3,0,0,1-4,.58,12.81,12.81,0,0,1-8.24-2.43V40.24a20.94,20.94,0,0,0-41.87-.09c0,0.07,0,16.32,0,27.52a18,18,0,0,0-8.46,15.27v1.5h1.5l46.27,0c11.56,0,20.84-2.21,27.64-6.56a4.58,4.58,0,0,0,4.37-3.21,4.63,4.63,0,0,0,6.06-5.46,4.61,4.61,0,0,0,2.8-1.32,4.66,4.66,0,0,0,.67-5.71A5.16,5.16,0,0,0,111.28,56.1ZM75.38,63V48.22l12.83-7.41L101,48.22v9.23a4.57,4.57,0,0,0-4,4.29,4.39,4.39,0,0,0-1.7,0A3,3,0,0,0,95.18,61l-0.92-2.84,2.42-1.76a3,3,0,0,0-1.76-5.43h-3L91,48.1a3,3,0,0,0-5.71,0l-0.92,2.84h-3a3,3,0,0,0-1.76,5.43L82,58.12,81.11,61a3,3,0,0,0,4.62,3.35l2.42-1.76,2.42,1.76a3,3,0,0,0,1.22.52,4.69,4.69,0,0,0-.15,2.41,4.54,4.54,0,0,0-3.36,3.28l-0.06-.07Zm6-9.1h5.17L88.14,49l1.6,4.91h5.17l-4.18,3,1.6,4.91-4.18-3-4.18,3L85.56,57Zm-51-13.76a17.94,17.94,0,0,1,35.87.06v26a14.16,14.16,0,0,0-6.59-1.41H55.93V60.33a14.21,14.21,0,0,0,6.51-11.73V43.23c0-5.33-4.71-7.84-8.49-9.86-2-1.08-4.3-2.3-4.3-3.34a1.5,1.5,0,0,0-3,0c0,1-2.06,2.07-4,3.1-3.59,1.86-8.5,4.42-8.5,10.1v5.34a14.18,14.18,0,0,0,6.52,11.77v4.54H36.94a17.94,17.94,0,0,0-6.59,1.26C30.34,56.38,30.34,40.4,30.34,40.18ZM48.28,59.61A11.2,11.2,0,0,1,37.11,48.55V43.23c0-3.87,3.5-5.68,6.88-7.44a19.28,19.28,0,0,0,4.16-2.6A20.36,20.36,0,0,0,52.55,36c3.39,1.81,6.9,3.69,6.9,7.22v5.36A11.21,11.21,0,0,1,48.28,59.61Zm4.66,2.19v7.78H43.63V61.81A13.81,13.81,0,0,0,52.93,61.8ZM66.64,81.47L22,81.44a15.08,15.08,0,0,1,15-13.56h3.69v3.21a1.5,1.5,0,0,0,1.5,1.5H54.43a1.5,1.5,0,0,0,1.5-1.5V67.88h3.69a11.34,11.34,0,0,1,7.49,2.47,15.92,15.92,0,0,0,10.34,3.23A17.31,17.31,0,0,0,84.83,72l3.38,2,0.32-.19A4.64,4.64,0,0,0,89.44,75l1.43,1.43C84.81,79.72,76.61,81.47,66.64,81.47Zm28.77-7a1.66,1.66,0,0,1-2.34,0l-1.51-1.51a1.65,1.65,0,0,1,2.16-2.49l1.84,1.84A1.65,1.65,0,0,1,95.42,74.43Zm6-2.94a1.66,1.66,0,0,1-2.34,0l-1.35-1.35C97.63,70.09,97.6,70,97.54,70L96,68.46c-0.06-.06-0.13-0.1-0.19-0.15L95,67.48a1.66,1.66,0,0,1,2.34-2.34l4,4A1.66,1.66,0,0,1,101.38,71.5Zm4-5.69a1.66,1.66,0,0,1-2.34,0l-2.59-2.59a1.66,1.66,0,1,1,2.34-2.34l2.59,2.59A1.66,1.66,0,0,1,105.4,65.8Zm1.45-6.27-0.9.24-1-1a4.66,4.66,0,0,0-.89-0.68V55.8l1.69-.45A2.17,2.17,0,1,1,106.85,59.53Z"/></svg>